<svg xmlns="http://www.w3.org/2000/svg" version="1.1" xmlns:xlink="http://www.w3.org/1999/xlink" xmlns:svgjs="http://svgjs.com/svgjs" width="512" height="512" x="0" y="0" viewBox="0 0 24 24" style="enable-background:new 0 0 512 512" xml:space="preserve" class=""><g><g fill="#000"><path d="M2.25 9.5A.75.75 0 0 1 3 8.75h18a.75.75 0 0 1 0 1.5H3a.75.75 0 0 1-.75-.75z" fill="#000000" data-original="#000000" class=""></path><path d="M14.47 2.97a.75.75 0 0 1 1.06 0l6 6a.75.75 0 1 1-1.06 1.06l-6-6a.75.75 0 0 1 0-1.06zM2.65 14.5a.75.75 0 0 1 .75-.75h18a.75.75 0 0 1 0 1.5h-18a.75.75 0 0 1-.75-.75z" fill="#000000" data-original="#000000" class=""></path><path d="M2.87 13.97a.75.75 0 0 1 1.06 0l6 6a.75.75 0 0 1-1.06 1.06l-6-6a.75.75 0 0 1 0-1.06z" fill="currentColor" data-original="currentColor" class=""></path></g></g></svg>