<svg xmlns="http://www.w3.org/2000/svg" version="1.1" xmlns:xlink="http://www.w3.org/1999/xlink" xmlns:svgjs="http://svgjs.com/svgjs" width="512" height="512" x="0" y="0" viewBox="0 0 100 100" style="enable-background:new 0 0 512 512" xml:space="preserve" class=""><g><path d="M95.554 61.21 70.505 34.597C56.391 19.602 36.485 11 15.891 11H5a3 3 0 1 0 0 6h10.891c13.095 0 25.886 3.784 36.826 10.675l-11.19 3.197C37.684 31.971 35 35.53 35 39.526V41c0 4.963 4.037 9 9 9h32.763l14.422 15.322c.525.56.815 1.289.815 2.057V68c0 1.654-1.346 3-3 3H5a3 3 0 1 0 0 6h84c4.963 0 9-4.037 9-9v-.621a8.976 8.976 0 0 0-2.446-6.169zM44 44c-1.654 0-3-1.346-3-3v-1.474c0-1.333.895-2.52 2.177-2.886l15.791-4.511a68.326 68.326 0 0 1 7.169 6.581L71.115 44zm54 42a3 3 0 0 1-3 3H5a3 3 0 1 1 0-6h90a3 3 0 0 1 3 3zM20 50c3.309 0 6-2.691 6-6v-6c0-3.309-2.691-6-6-6h-9c-3.309 0-6 2.691-6 6v6c0 3.309 2.691 6 6 6zm-9-12h9l.004 6H11z" fill="currentColor" data-original="currentColor" class=""></path></g></svg>