<svg width="611" height="460" viewBox="0 0 611 460" fill="none" xmlns="http://www.w3.org/2000/svg">
<g clip-path="url(#clip0_6_6)">
<path d="M68.5002 385.5H501C510 385.5 522.7 381 529.5 363C536.3 345 524 333.483 519.5 328C479.834 279.667 386 185 353.5 158C310.933 122.637 228.5 71 60.5002 79C50.0002 79.3333 25.3374 79.2039 18.0002 69.5C2.5 49 22.0001 24 96.5001 20.5C156.1 17.7 431 15.6667 563.5 13.5C592.5 13.0258 601 64.5 563.5 69.5C550.118 71.2842 481.948 72.2998 435.5 74.5C340.5 79 364 85.5 364 85.5C364 85.5 511.951 201 577.5 308.5C598.842 343.5 601.35 379.5 592.5 409C589.5 419 570 447 534.5 447H68.5002" stroke="black" stroke-width="26" stroke-linecap="round"/>
<path d="M340.5 150C303.333 151.167 230 165.7 234 214.5C235.803 236.5 255.5 246.5 274.5 246.5H433" stroke="black" stroke-width="26" stroke-linecap="round"/>
<path d="M71.5 204V227.5C71.5 242.412 83.5883 254.5 98.5 254.5H141.5C156.412 254.5 168.5 242.412 168.5 227.5V204C168.5 189.088 156.412 177 141.5 177H98.5C83.5883 177 71.5 189.088 71.5 204Z" stroke="black" stroke-width="26" stroke-linecap="round"/>
</g>
<defs>
<clipPath id="clip0_6_6">
<rect width="611" height="460" fill="white"/>
</clipPath>
</defs>
</svg>
