<svg xmlns="http://www.w3.org/2000/svg" version="1.1" xmlns:xlink="http://www.w3.org/1999/xlink" xmlns:svgjs="http://svgjs.com/svgjs" width="512" height="512" x="0" y="0" viewBox="0 0 24 24" style="enable-background:new 0 0 512 512" xml:space="preserve" class=""><g><path d="m17.8 19.976-1.124-1.256a5.245 5.245 0 0 0 3.569-5.355L19.8 6.712A5.319 5.319 0 0 0 14.486 1.4H9.514A5.308 5.308 0 0 0 4.2 6.672l-.448 6.693a5.245 5.245 0 0 0 3.571 5.355L6.2 19.973 4.741 21.6a.6.6 0 1 0 .894.8L6.894 21h10.214l1.259 1.4a.6.6 0 1 0 .894-.8zM6.051 16.529a4.071 4.071 0 0 1-1.1-3.083L5.4 6.712A4.117 4.117 0 0 1 9.514 2.6h4.972A4.128 4.128 0 0 1 18.6 6.752l.448 6.693a4.112 4.112 0 0 1-4.1 4.387H9.055a4.072 4.072 0 0 1-3.004-1.303zm1.92 3.271.72-.8c.123.008.24.037.365.037h5.89c.125 0 .243-.029.366-.037l.72.8zm.888-7.48h6.283a2.174 2.174 0 0 0 2.171-2.171V8.576a2.174 2.174 0 0 0-2.171-2.171H8.859a2.174 2.174 0 0 0-2.171 2.171v1.571a2.174 2.174 0 0 0 2.171 2.171zm-.97-3.744a.972.972 0 0 1 .971-.971h6.283a.972.972 0 0 1 .971.971v1.571a.972.972 0 0 1-.971.971H8.859a.972.972 0 0 1-.971-.971zM9.1 14.735a1 1 0 1 1-1-1 1 1 0 0 1 1 1zm7.793 0a1 1 0 1 1-1-1 1 1 0 0 1 1.007 1zM9.659 4.512a.6.6 0 0 1 .6-.6h3.481a.6.6 0 0 1 0 1.2h-3.481a.6.6 0 0 1-.6-.6z" fill="currentColor" data-original="currentColor" class=""></path></g></svg>