<svg width="531" height="58" viewBox="0 0 531 58" fill="none" xmlns="http://www.w3.org/2000/svg">
<g clip-path="url(#clip0_2_7)">
<path d="M383 30V21C383 18.7909 384.791 17 387 17H404H416.811C417.103 17 417.394 17.0319 417.679 17.0953L418.705 17.3234C419.23 17.4399 419.725 17.6609 420.162 17.9732L422.731 19.8076C422.91 19.9356 423.078 20.0783 423.234 20.2341L426 23L430.5 28.5L430.567 28.5823C432.339 30.7482 430.798 34 428 34H421.5H387C384.791 34 383 32.2091 383 30Z" stroke="black" stroke-width="5"/>
<path d="M87 3.01465H371.239C379.192 2.85726 395.099 3.90665 405.472 9.15325C410.141 11.5142 432.963 21.9026 434 38.9017C434 51.1788 417.921 48.8178 371.239 48.8178H87" stroke="black" stroke-width="5"/>
<path d="M354 30V21C354 18.7909 355.791 17 358 17H366C368.209 17 370 18.7909 370 21V30C370 32.2091 368.209 34 366 34H358C355.791 34 354 32.2091 354 30Z" stroke="black" stroke-width="5"/>
<path d="M326 30V21C326 18.7909 327.791 17 330 17H338C340.209 17 342 18.7909 342 21V30C342 32.2091 340.209 34 338 34H330C327.791 34 326 32.2091 326 30Z" stroke="black" stroke-width="5"/>
<path d="M298 30V21C298 18.7909 299.791 17 302 17H310C312.209 17 314 18.7909 314 21V30C314 32.2091 312.209 34 310 34H302C299.791 34 298 32.2091 298 30Z" stroke="black" stroke-width="5"/>
<path d="M269 30V21C269 18.7909 270.791 17 273 17H281C283.209 17 285 18.7909 285 21V30C285 32.2091 283.209 34 281 34H273C270.791 34 269 32.2091 269 30Z" stroke="black" stroke-width="5"/>
<path d="M240 30V21C240 18.7909 241.791 17 244 17H252C254.209 17 256 18.7909 256 21V30C256 32.2091 254.209 34 252 34H244C241.791 34 240 32.2091 240 30Z" stroke="black" stroke-width="5"/>
<path d="M211 30V21C211 18.7909 212.791 17 215 17H223C225.209 17 227 18.7909 227 21V30C227 32.2091 225.209 34 223 34H215C212.791 34 211 32.2091 211 30Z" stroke="black" stroke-width="5"/>
<path d="M182 30V21C182 18.7909 183.791 17 186 17H194C196.209 17 198 18.7909 198 21V30C198 32.2091 196.209 34 194 34H186C183.791 34 182 32.2091 182 30Z" stroke="black" stroke-width="5"/>
<path d="M153 30V21C153 18.7909 154.791 17 157 17H165C167.209 17 169 18.7909 169 21V30C169 32.2091 167.209 34 165 34H157C154.791 34 153 32.2091 153 30Z" stroke="black" stroke-width="5"/>
<path d="M124 30V21C124 18.7909 125.791 17 128 17H136C138.209 17 140 18.7909 140 21V30C140 32.2091 138.209 34 136 34H128C125.791 34 124 32.2091 124 30Z" stroke="black" stroke-width="5"/>
<path d="M96 30V21C96 18.7909 97.7909 17 100 17H108C110.209 17 112 18.7909 112 21V30C112 32.2091 110.209 34 108 34H100C97.7909 34 96 32.2091 96 30Z" stroke="black" stroke-width="5"/>
<path d="M110.5 49H96C96.5 51.5 99.1 55 103.5 55C107.9 55 110.333 51.6667 110.5 49Z" stroke="black" stroke-width="5"/>
<path d="M138.5 49H124C124.5 51.5 127.1 55 131.5 55C135.9 55 138.333 51.6667 138.5 49Z" stroke="black" stroke-width="5"/>
<path d="M166.5 49H152C152.5 51.5 155.1 55 159.5 55C163.9 55 166.333 51.6667 166.5 49Z" stroke="black" stroke-width="5"/>
<path d="M194.5 49H180C180.5 51.5 183.1 55 187.5 55C191.9 55 194.333 51.6667 194.5 49Z" stroke="black" stroke-width="5"/>
<path d="M223.5 49H209C209.5 51.5 212.1 55 216.5 55C220.9 55 223.333 51.6667 223.5 49Z" stroke="black" stroke-width="5"/>
<path d="M252.5 49H238C238.5 51.5 241.1 55 245.5 55C249.9 55 252.333 51.6667 252.5 49Z" stroke="black" stroke-width="5"/>
<path d="M281.5 49H267C267.5 51.5 270.1 55 274.5 55C278.9 55 281.333 51.6667 281.5 49Z" stroke="black" stroke-width="5"/>
<path d="M310.5 49H296C296.5 51.5 299.1 55 303.5 55C307.9 55 310.333 51.6667 310.5 49Z" stroke="black" stroke-width="5"/>
<path d="M339.5 49H325C325.5 51.5 328.1 55 332.5 55C336.9 55 339.333 51.6667 339.5 49Z" stroke="black" stroke-width="5"/>
<path d="M368.5 49H354C354.5 51.5 357.1 55 361.5 55C365.9 55 368.333 51.6667 368.5 49Z" stroke="black" stroke-width="5"/>
<path d="M397.5 49H383C383.5 51.5 386.1 55 390.5 55C394.9 55 397.333 51.6667 397.5 49Z" stroke="black" stroke-width="5"/>
<circle cx="6.5" cy="26.5" r="6.5" fill="black"/>
<circle cx="31.5" cy="26.5" r="6.5" fill="black"/>
<circle cx="56.5" cy="26.5" r="6.5" fill="black"/>
<circle cx="474.5" cy="27.5" r="6.5" fill="black"/>
<circle cx="499.5" cy="27.5" r="6.5" fill="black"/>
<circle cx="524.5" cy="27.5" r="6.5" fill="black"/>
</g>
<defs>
<clipPath id="clip0_2_7">
<rect width="531" height="58" fill="white"/>
</clipPath>
</defs>
</svg>
